HIERARCHY
ROOT Hips
{
	OFFSET 0.00000 0.00000 0.00000
	CHANNELS 6 Xposition Yposition Zposition Zrotation Yrotation Xrotation 
	JOINT LHipJoint
	{
		OFFSET 0 0 0
		CHANNELS 3 Zrotation Yrotation Xrotation
		JOINT LeftHip
		{
			OFFSET 1.37959 -1.78713 0.86582
			CHANNELS 3 Zrotation Yrotation Xrotation
			JOINT LeftKnee
			{
				OFFSET 2.54611 -6.99539 0.00000
				CHANNELS 3 Zrotation Yrotation Xrotation
				JOINT LeftAnkle
				{
					OFFSET 2.59951 -7.14211 0.00000
					CHANNELS 3 Zrotation Yrotation Xrotation
					JOINT LeftToe
					{
						OFFSET 0.18493 -0.50810 1.96120
						CHANNELS 3 Zrotation Yrotation Xrotation
						End Site
						{
							OFFSET 0.00000 -0.00000 1.02054
						}
					}
				}
			}
		}
	}
	JOINT RHipJoint
	{
		OFFSET 0 0 0
		CHANNELS 3 Zrotation Yrotation Xrotation
		JOINT RightHip
		{
			OFFSET -1.33564 -1.78713 0.86582
			CHANNELS 3 Zrotation Yrotation Xrotation
			JOINT RightKnee
			{
				OFFSET -2.52705 -6.94302 0.00000
				CHANNELS 3 Zrotation Yrotation Xrotation
				JOINT RightAnkle
				{
					OFFSET -2.55964 -7.03257 0.00000
					CHANNELS 3 Zrotation Yrotation Xrotation
					JOINT RightToe
					{
						OFFSET -0.25804 -0.70896 2.12109
						CHANNELS 3 Zrotation Yrotation Xrotation
						End Site
						{
							OFFSET -0.00000 -0.00000 1.11821
						}
					}
				}
			}
		}
	}
	JOINT lowerback
	{
		OFFSET 0 0 0
		CHANNELS 3 Zrotation Yrotation Xrotation
		JOINT Chest
		{
			OFFSET -0.02031 2.24248 -0.18900
			CHANNELS 3 Zrotation Yrotation Xrotation
			JOINT Chest2
			{
				OFFSET 0.08342 2.24689 -0.03799
				CHANNELS 3 Zrotation Yrotation Xrotation
				JOINT lowerneck
				{
					OFFSET 0 0 0
					CHANNELS 3 Zrotation Yrotation Xrotation
					JOINT Neck
					{
						OFFSET -0.11607 1.55844 0.24628
						CHANNELS 3 Zrotation Yrotation Xrotation
						JOINT Head
						{
							OFFSET 0.06877 1.60174 -0.17013
							CHANNELS 3 Zrotation Yrotation Xrotation
							End Site
							{
								OFFSET 0.03358 1.61266 -0.08543
							}
						}
					}
				}
				JOINT LeftCollar
				{
					OFFSET 0 0 0
					CHANNELS 3 Zrotation Yrotation Xrotation
					JOINT LeftShoulder
					{
						OFFSET 3.47537 0.55866 -0.72348
CHANNELS 3 Zrotation Xrotation Yrotation
						JOINT LeftElbow
						{
OFFSET 0 -5.381540 0.000000
CHANNELS 3 Zrotation Xrotation Yrotation
							JOINT LeftWrist
							{
OFFSET 0 -3.333120 0.000000
CHANNELS 3 Zrotation Xrotation Yrotation
								JOINT lhand
								{
									OFFSET 0 0 0
CHANNELS 3 Zrotation Xrotation Yrotation
									JOINT LFingers
									{
OFFSET 0 -0.710790 0.000000
CHANNELS 3 Zrotation Xrotation Yrotation
										End Site
										{
OFFSET 0 -0.573060 0.000000
										}
									}
								}
								JOINT LThumb
								{
OFFSET 0 0.000000 0.000000
CHANNELS 3 Zrotation Xrotation Yrotation
									End Site
									{
OFFSET 0 -0.581810 0.581810
									}
								}
							}
						}
					}
				}
				JOINT RightCollar
				{
					OFFSET 0 0 0
					CHANNELS 3 Zrotation Yrotation Xrotation
					JOINT RightShoulder
					{
						OFFSET -3.27844 0.90739 -0.35708
CHANNELS 3 Zrotation Xrotation Yrotation
						JOINT RightElbow
						{
OFFSET 0 -5.169540 0.000000
CHANNELS 3 Zrotation Xrotation Yrotation
							JOINT RightWrist
							{
OFFSET 0 -3.382870 0.000000
CHANNELS 3 Zrotation Xrotation Yrotation
								JOINT rhand
								{
									OFFSET 0 0 0
CHANNELS 3 Zrotation Xrotation Yrotation
									JOINT RFingers
									{
OFFSET 0 -0.817970 0.000000
CHANNELS 3 Zrotation Xrotation Yrotation
										End Site
										{
OFFSET 0 -0.659470 0.000000
										}
									}
								}
								JOINT RThumb
								{
OFFSET 0 0.000000 0.000000
CHANNELS 3 Zrotation Xrotation Yrotation
									End Site
									{
OFFSET 0 -0.669530 0.669530
									}
								}
							}
						}
					}
				}
			}
		}
	}
}
MOTION
Frames: 5
Frame Time: 0.008333333333333333
7.868300 17.873100 13.564200 -178.961000 0.143200 -176.042000 0.000000 0.000000 0.000000 -16.684100 -4.036300 -12.700000 2.812800 10.385700 30.234900 0.688700 -11.011800 -15.622400 0.049700 -1.438400 -3.956000 0.000000 0.000000 0.000000 13.749400 0.899400 -9.129100 -2.298100 -9.461300 27.249200 -0.901900 -4.004600 -19.817100 -0.002100 0.299000 -0.821600 1.329900 2.127500 3.953200 0.742400 3.019500 2.830400 -0.079600 1.584000 0.718100 -11.783200 -1.113500 -10.165700 0.772000 -0.452400 20.352100 2.114000 -1.395500 8.040800 -0.000000 0.000000 0.000000 4.985600 -1.502000 -0.974300 24.438300 -35.624300 7.960400 -1.038900 3.639000 -48.667700 0.000000 0.000000 0.000000 -7.125000 0.000000 0.000000 -62.163900 69.290100 41.332300 -0.000000 0.000000 0.000000 -2.597400 2.349800 3.044400 -15.197400 -24.420400 -3.307100 -9.649700 -9.808600 -20.512500 0.000000 0.000000 0.000000 7.125000 0.000000 -0.000000 12.042200 9.557100 10.107500
7.715297 17.870805 13.512725 -180.025751 0.998563 -176.062309 0.000000 0.000000 0.000000 -18.456024 -2.777183 -12.773729 2.794499 10.354699 30.133096 0.672866 -11.518367 -15.620373 0.016406 -0.821727 -2.258490 0.000000 0.000000 0.000000 11.800012 1.160049 -9.885606 -2.526502 -9.885868 28.607867 -0.839562 -3.460810 -18.894977 -0.005112 0.459547 -1.262605 0.086016 2.356464 3.863372 0.567367 3.281353 2.883024 0.431158 1.696523 0.766325 -12.440602 -1.468116 -10.488903 1.038322 -0.745822 19.497134 2.279321 -1.482729 7.842017 0.000000 0.000000 0.000000 5.324916 -1.643547 -1.679707 25.295073 -36.504092 8.464854 -5.379020 -1.804466 -45.460351 0.000000 0.000000 0.000000 -7.125000 0.000000 0.000000 -58.909458 66.247594 35.061913 0.000000 0.000000 0.000000 -2.957068 1.836377 4.042738 -14.879049 -23.977348 -3.176602 -8.546123 -8.624989 -19.502805 0.000000 0.000000 0.000000 7.125000 0.000000 0.000000 12.746833 10.646585 10.441025
7.557883 17.870468 13.472840 -180.042985 1.922408 -175.684174 0.000000 0.000000 0.000000 -19.083963 -2.397030 -13.185259 2.828916 10.412730 30.323993 0.704880 -11.435985 -15.888294 0.006228 0.508748 1.398051 0.000000 0.000000 0.000000 11.016095 1.767762 -11.141840 -2.792421 -10.351191 30.121710 -0.731510 -3.138079 -17.592203 -0.064331 1.635666 -4.499895 0.140650 2.487268 3.662992 0.495750 3.432023 2.578002 0.323196 1.762381 0.571402 -12.442802 -1.384245 -10.298024 0.934870 -0.578987 18.401853 2.259802 -1.335996 7.434496 0.000000 0.000000 0.000000 5.725181 -1.331047 -2.442403 26.263372 -37.467542 9.047397 -9.479168 -5.453424 -46.539784 0.000000 0.000000 0.000000 -7.125000 0.000000 0.000000 -64.224028 65.554249 38.379214 0.000000 0.000000 0.000000 -2.892841 1.782631 5.181993 -15.056976 -24.225365 -3.249237 -8.776105 -8.609111 -19.273591 0.000000 0.000000 0.000000 7.125000 0.000000 0.000000 12.601307 10.852777 10.261061
7.401419 17.868815 13.432451 -180.074686 2.148221 -176.335107 0.000000 0.000000 0.000000 -19.814273 -2.371553 -12.037588 2.760321 10.296528 29.942519 0.709483 -10.913393 -15.786859 0.012140 0.712111 1.957075 0.000000 0.000000 0.000000 10.215049 1.651244 -11.468713 -3.121698 -10.889308 31.907612 -0.653948 -2.606185 -16.439760 -0.094343 1.980424 -5.451621 0.215282 2.357125 4.498982 0.608903 3.274536 2.543583 0.360928 1.688030 0.068489 -12.546713 -1.517006 -10.397293 0.717513 -0.671610 17.941799 2.193705 -1.376490 7.310935 0.000000 0.000000 0.000000 5.766030 -0.942437 -2.567396 26.422235 -37.622628 9.144244 -9.660078 -4.567350 -44.316040 0.000000 0.000000 0.000000 -7.125000 0.000000 0.000000 -60.401870 64.337613 33.797857 0.000000 0.000000 0.000000 -3.133995 1.611453 5.854519 -15.396015 -24.694873 -3.389700 -8.130661 -8.863422 -18.944766 0.000000 0.000000 0.000000 7.125000 0.000000 0.000000 13.019159 11.227314 10.517357
7.260604 17.895990 13.381535 -180.043060 2.758824 -176.807935 0.000000 0.000000 0.000000 -20.408420 -1.637384 -11.035526 2.624990 10.061614 29.176659 0.699751 -10.446882 -15.577352 0.027935 1.079120 2.966531 0.000000 0.000000 0.000000 9.544663 2.195738 -11.902493 -3.457853 -11.401698 33.647094 -0.564689 -2.503637 -15.324685 -0.032927 1.171540 -3.220996 0.256199 2.252327 4.605407 0.693370 3.155846 2.804228 0.432384 1.636965 0.274887 -12.791265 -1.424255 -11.077605 0.982530 -0.394313 17.722591 2.345566 -1.207421 7.341202 0.000000 0.000000 0.000000 5.639681 -1.101503 -2.489734 26.076690 -37.284355 8.934088 -5.828603 -0.582076 -42.210978 0.000000 0.000000 0.000000 -7.125000 0.000000 0.000000 -53.666107 64.208526 28.778322 0.000000 0.000000 0.000000 -3.248543 0.939020 6.365994 -15.900191 -25.384953 -3.603109 -8.243936 -9.317575 -19.683804 0.000000 0.000000 0.000000 7.125000 0.000000 0.000000 12.938389 10.493612 10.647872
